<!DOCTYPE svg PUBLIC "-//W3C//DTD SVG 1.1//EN" "http://www.w3.org/Graphics/SVG/1.1/DTD/svg11.dtd">
<!-- Uploaded to: SVG Repo, www.svgrepo.com, Transformed by: SVG Repo Mixer Tools -->
<svg version="1.1" id="Uploaded to svgrepo.com" xmlns="http://www.w3.org/2000/svg" xmlns:xlink="http://www.w3.org/1999/xlink" width="800px" height="800px" viewBox="-3.2 -3.2 38.40 38.40" xml:space="preserve" fill="#000000" transform="rotate(90)">
<g id="SVGRepo_bgCarrier" stroke-width="0">
<rect x="-3.2" y="-3.2" width="38.40" height="38.40" rx="19.2" fill="#3dcfa4" strokewidth="0"/>
</g>
<g id="SVGRepo_tracerCarrier" stroke-linecap="round" stroke-linejoin="round"/>
<g id="SVGRepo_iconCarrier"> <style type="text/css"> .duotone_een{fill:#ffffff;} .st0{fill:#555D5E;} .st1{fill:none;} </style> <g> <g> <path class="duotone_een" d="M26,13.5v11.75c0,0.414-0.336,0.75-0.75,0.75h-9.824v1.201c0,0.463-0.38,0.799-0.799,0.799 c-0.289,0-5.758-2.786-5.758-2.786c-0.589-0.294-0.589-1.134,0-1.428c0,0,5.481-2.786,5.758-2.786c0.419,0,0.799,0.337,0.799,0.8 V23H23v-9.5c0-0.276,0.224-0.5,0.5-0.5h2C25.776,13,26,13.224,26,13.5z M17.373,11c0.276,0,5.758-2.786,5.758-2.786 c0.589-0.294,0.589-1.134,0-1.428c0,0-5.481-2.786-5.758-2.786c-0.419,0-0.799,0.337-0.799,0.799V6H6.75C6.336,6,6,6.336,6,6.75 V18.5C6,18.776,6.224,19,6.5,19h2C8.776,19,9,18.776,9,18.5V9h7.574v1.2C16.574,10.663,16.954,11,17.373,11z"/> </g> <g> <path class="duotone_een" d="M26,13.5v11.75c0,0.414-0.336,0.75-0.75,0.75h-9.824v1.201c0,0.463-0.38,0.799-0.799,0.799 c-0.289,0-5.758-2.786-5.758-2.786c-0.589-0.294-0.589-1.134,0-1.428c0,0,5.481-2.786,5.758-2.786c0.419,0,0.799,0.337,0.799,0.8 V23H23v-9.5c0-0.276,0.224-0.5,0.5-0.5h2C25.776,13,26,13.224,26,13.5z M17.373,11c0.276,0,5.758-2.786,5.758-2.786 c0.589-0.294,0.589-1.134,0-1.428c0,0-5.481-2.786-5.758-2.786c-0.419,0-0.799,0.337-0.799,0.799V6H6.75C6.336,6,6,6.336,6,6.75 V18.5C6,18.776,6.224,19,6.5,19h2C8.776,19,9,18.776,9,18.5V9h7.574v1.2C16.574,10.663,16.954,11,17.373,11z"/> </g> </g> </g>
</svg>